<svg id="office-monthly-calendar" xmlns="http://www.w3.org/2000/svg" width="58.927" height="59.612" viewBox="0 0 58.927 59.612">
  <g id="Group_51" data-name="Group 51" transform="translate(0)">
    <path id="Path_91" data-name="Path 91" d="M59.7,45.333H53.537a2.056,2.056,0,1,0,0,4.111h4.111V95.352H6.944V49.444h5.482a2.056,2.056,0,1,0,0-4.111H4.889a2.062,2.062,0,0,0-2.056,2.056V97.408a2.062,2.062,0,0,0,2.056,2.056H59.7a2.062,2.062,0,0,0,2.056-2.056V47.389A2.061,2.061,0,0,0,59.7,45.333Z" transform="translate(-2.833 -39.851)" fill="#fff"/>
    <path id="Path_92" data-name="Path 92" d="M211.88,45.333h-5.824a2.056,2.056,0,0,0,0,4.111h5.824a2.056,2.056,0,1,0,0-4.111Z" transform="translate(-179.676 -39.851)" fill="#fff"/>
    <path id="Path_93" data-name="Path 93" d="M94.685,351.333h-4.8a2.062,2.062,0,0,0-2.056,2.056v3.426a2.062,2.062,0,0,0,2.056,2.056h4.8a2.062,2.062,0,0,0,2.056-2.056v-3.426A2.062,2.062,0,0,0,94.685,351.333Z" transform="translate(-77.555 -308.851)" fill="#fff"/>
    <path id="Path_94" data-name="Path 94" d="M214.028,351.333h-5.139a2.062,2.062,0,0,0-2.056,2.056v3.426a2.062,2.062,0,0,0,2.056,2.056h5.139a2.062,2.062,0,0,0,2.056-2.056v-3.426A2.062,2.062,0,0,0,214.028,351.333Z" transform="translate(-182.166 -308.851)" fill="#fff"/>
    <path id="Path_95" data-name="Path 95" d="M96.741,259.889a2.062,2.062,0,0,0-2.056-2.056h-4.8a2.062,2.062,0,0,0-2.056,2.056v3.426a2.062,2.062,0,0,0,2.056,2.056h4.8a2.062,2.062,0,0,0,2.056-2.056Z" transform="translate(-77.555 -226.657)" fill="#fff"/>
    <path id="Path_96" data-name="Path 96" d="M216.083,259.889a2.062,2.062,0,0,0-2.056-2.056h-5.139a2.062,2.062,0,0,0-2.056,2.056v3.426a2.062,2.062,0,0,0,2.056,2.056h5.139a2.062,2.062,0,0,0,2.056-2.056Z" transform="translate(-182.166 -226.657)" fill="#fff"/>
    <path id="Path_97" data-name="Path 97" d="M335.518,257.833h-4.8a2.062,2.062,0,0,0-2.056,2.056v3.426a2.062,2.062,0,0,0,2.056,2.056h4.8a2.062,2.062,0,0,0,2.056-2.056v-3.426A2.062,2.062,0,0,0,335.518,257.833Z" transform="translate(-289.267 -226.657)" fill="#fff"/>
    <path id="Path_98" data-name="Path 98" d="M87.833,163.556v3.426a2.062,2.062,0,0,0,2.056,2.056h4.8a2.062,2.062,0,0,0,2.056-2.056v-3.426a2.062,2.062,0,0,0-2.056-2.056h-4.8A2.062,2.062,0,0,0,87.833,163.556Z" transform="translate(-77.555 -141.972)" fill="#fff"/>
    <path id="Path_99" data-name="Path 99" d="M216.083,163.556a2.062,2.062,0,0,0-2.056-2.056h-5.139a2.062,2.062,0,0,0-2.056,2.056v3.426a2.062,2.062,0,0,0,2.056,2.056h5.139a2.062,2.062,0,0,0,2.056-2.056Z" transform="translate(-182.166 -141.972)" fill="#fff"/>
    <path id="Path_100" data-name="Path 100" d="M337.574,163.556a2.062,2.062,0,0,0-2.056-2.056h-4.8a2.062,2.062,0,0,0-2.056,2.056v3.426a2.062,2.062,0,0,0,2.056,2.056h4.8a2.062,2.062,0,0,0,2.056-2.056Z" transform="translate(-289.267 -141.972)" fill="#fff"/>
    <path id="Path_101" data-name="Path 101" d="M125.944,13.7A2.062,2.062,0,0,0,128,11.648V2.056A2.062,2.062,0,0,0,125.944,0h-2.056a2.062,2.062,0,0,0-2.056,2.056v9.593a2.062,2.062,0,0,0,2.056,2.056Z" transform="translate(-107.444 0)" fill="#fff"/>
    <path id="Path_102" data-name="Path 102" d="M321.444,0h-2.056a2.062,2.062,0,0,0-2.056,2.056v9.593a2.062,2.062,0,0,0,2.056,2.056h2.056a2.062,2.062,0,0,0,2.056-2.056V2.056A2.062,2.062,0,0,0,321.444,0Z" transform="translate(-279.305)" fill="#fff"/>
  </g>
</svg>
