<svg id="map-point-pointer" xmlns="http://www.w3.org/2000/svg" width="41.971" height="59.044" viewBox="0 0 41.971 59.044">
  <g id="Group_63" data-name="Group 63" transform="translate(0)">
    <path id="Path_117" data-name="Path 117" d="M174.89,114.467a9.281,9.281,0,1,0,9.281,9.281A9.281,9.281,0,0,0,174.89,114.467Zm0,14.406a5.125,5.125,0,1,1,5.125-5.125A5.136,5.136,0,0,1,174.89,128.873Z" transform="translate(-153.904 -100.476)" fill="#fff"/>
    <path id="Path_118" data-name="Path 118" d="M106.238,6.926A20.791,20.791,0,0,0,90.2,0C76.837,0,69.842,10.874,69.842,21.609c0,14.06,19.22,35.773,20.051,36.708a2.01,2.01,0,0,0,1.524.727h.035a2.16,2.16,0,0,0,1.524-.693,103.331,103.331,0,0,0,9.35-12.017c6.3-9.419,9.489-17.765,9.489-24.76A22.363,22.363,0,0,0,106.238,6.926ZM91.486,53.711c-4.5-5.4-17.454-21.782-17.454-32.137,0-8.381,5.091-17.419,16.207-17.419,11.324,0,17.419,8.969,17.419,17.419C107.658,33.764,95.78,48.69,91.486,53.711Z" transform="translate(-69.842)" fill="#fff"/>
  </g>
</svg>
