<svg xmlns="http://www.w3.org/2000/svg" width="40.244" height="43.307" viewBox="0 0 40.244 43.307">
  <path id="Path_8305" data-name="Path 8305" d="M212.159-1204.8l4.64-4.092a1.867,1.867,0,0,0,.166-2.636l-6.608-7.5a1.867,1.867,0,0,0-2.636-.166l-4.02,3.544a8.021,8.021,0,0,0-2.156,8.918,56.838,56.838,0,0,0,10.414,16.952,56.822,56.822,0,0,0,15.516,12.456,8.016,8.016,0,0,0,9.116-1.022l4.02-3.544a1.867,1.867,0,0,0,.166-2.636l-6.61-7.5a1.868,1.868,0,0,0-2.636-.166l-4.64,4.092a1.569,1.569,0,0,1-1.934.12,44.268,44.268,0,0,1-7.488-6.662,44.18,44.18,0,0,1-5.67-8.264,1.564,1.564,0,0,1,.36-1.9" transform="translate(-201 1219.654)" fill="#fff" fill-rule="evenodd"/>
</svg>
