<svg xmlns="http://www.w3.org/2000/svg" xmlns:xlink="http://www.w3.org/1999/xlink" width="460.936" height="626.856" viewBox="0 0 460.936 626.856">
  <defs>
    <linearGradient id="linear-gradient" x1="0.27" y1="0.384" x2="0.949" y2="0.844" gradientUnits="objectBoundingBox">
      <stop offset="0" stop-color="#ff406e"/>
      <stop offset="1" stop-color="#cd0031"/>
    </linearGradient>
    <clipPath id="clip-path">
      <path id="Path_769" data-name="Path 769" d="M3.291,384.908S-10.727,291.25,19.1,231.978,53.135,158.464,61.207,107.49c.705-4.489-2.449-16.144-15.186-23.234-8.529-4.739-26.514-4.724-30.65-13.887C6.795,51.359,26.879,31.446,26.879,31.446s11.344-9.661,34.328,10.021,57.588,68.708,57.588,68.708-10.854-44.031-6.59-71.13S122.594,3.438,135.646.737s27.256,1.076,28.748,27.5c.635,11.259-16.051,24.176-21.48,40.792-5.85,17.922-1.1,38.457-1.1,38.457s79.564,65.03,107.557,127.854,4.4,123.446,4.4,123.446l-27.662,26.117,11.482-54.876s-19.9,8.066-43.566,36.314-51.109,76.673-51.109,76.673-37.576-47.269-66.689-72.636-35.549,15.1-35.549,15.1H19.1Z" transform="translate(0.001)" fill="url(#linear-gradient)"/>
    </clipPath>
    <linearGradient id="linear-gradient-3" x1="-0.132" y1="0.319" x2="0.658" y2="1.306" gradientUnits="objectBoundingBox">
      <stop offset="0" stop-color="#7ee26c"/>
      <stop offset="1" stop-color="#3f7136"/>
    </linearGradient>
    <filter id="Path_756" x="133.933" y="190.392" width="93.654" height="48.77" filterUnits="userSpaceOnUse">
      <feOffset dy="3" input="SourceAlpha"/>
      <feGaussianBlur stdDeviation="3" result="blur"/>
      <feFlood flood-color="#700" flood-opacity="0.651"/>
      <feComposite operator="in" in2="blur"/>
      <feComposite in="SourceGraphic"/>
    </filter>
    <filter id="Path_757" x="241.466" y="157.474" width="107.869" height="50.324" filterUnits="userSpaceOnUse">
      <feOffset dy="3" input="SourceAlpha"/>
      <feGaussianBlur stdDeviation="3" result="blur-2"/>
      <feFlood flood-color="#700" flood-opacity="0.651"/>
      <feComposite operator="in" in2="blur-2"/>
      <feComposite in="SourceGraphic"/>
    </filter>
  </defs>
  <g id="Group_886" data-name="Group 886" transform="translate(0.001 0.001)">
    <path id="Path_764" data-name="Path 764" d="M3370.383,17856.459s20.552,70.348,30.532,83.668c5.13,6.844,19.391,36.5,75.337,43.945,52.741,7.047,125.953,2.3,143-2.078,38.819-9.965,56.744-2.223,75.943-32.418s21.859-98.414,21.859-98.414Z" transform="translate(-3316.585 -17360.813)" fill="#9a7f26"/>
    <path id="Path_765" data-name="Path 765" d="M179.822,0c96.409,0,174.565,42.63,174.565,95.217s-78.155,95.217-174.565,95.217S-.983,143.266-.983,90.679,83.413,0,179.822,0Z" transform="translate(54.781 299.914)" fill="#ccac43"/>
    <path id="Path_759" data-name="Path 759" d="M-11587.094-1201.562l-78.232-114.367s11.15,65.162,30.707,108.927,47.525,66.132,47.525,66.132Z" transform="translate(11715.05 1557.922)" fill="#418834"/>
    <path id="Path_758" data-name="Path 758" d="M-11665.326-1220.9l65.006-95.032s-9.262,54.146-25.514,90.512-39.492,54.951-39.492,54.951Z" transform="translate(12018.271 1553.435)" fill="#418834"/>
    <path id="Path_717" data-name="Path 717" d="M-12074.792-2116.069s-14.018-93.658,15.807-152.93,34.037-73.514,42.109-124.487c.705-4.489-2.449-16.144-15.186-23.234-8.529-4.739-26.514-4.724-30.65-13.887-8.576-19.01,11.508-38.922,11.508-38.922s11.344-9.661,34.328,10.021,57.588,68.708,57.588,68.708-10.854-44.031-6.59-71.13,9.314-34.227,22.361-36.928,28.336-.3,29.828,26.124c.635,11.259-16.051,24.176-21.48,40.792-5.85,17.922-1.1,38.457-1.1,38.457s79.564,65.03,107.557,127.854,4.4,123.446,4.4,123.446l-27.662,26.117,11.482-54.876s-19.9,8.066-43.566,36.314-51.109,76.673-51.109,76.673-37.576-47.269-66.689-72.636-35.549,15.1-35.549,15.1h-21.578Z" transform="translate(12175.478 2537.018)" fill="url(#linear-gradient)"/>
    <ellipse id="Ellipse_367" data-name="Ellipse 367" cx="25.713" cy="16.07" rx="25.713" ry="16.07" transform="translate(101.495 107.232) rotate(-69)" fill="#dd1444"/>
    <g id="Mask_Group_56" data-name="Mask Group 56" transform="matrix(0.848, -0.53, 0.53, 0.848, -0.002, 139.401)" clip-path="url(#clip-path)">
      <g id="Group_885" data-name="Group 885" transform="translate(-25.912 30.096)">
        <path id="Path_768" data-name="Path 768" d="M1.915,1.763A8.872,8.872,0,0,1,6.428,0s.017,2.977-1.59,4.475S0,5.994,0,5.994A7.778,7.778,0,0,1,1.915,1.763Z" transform="matrix(0.588, -0.809, 0.809, 0.588, 29.652, 5.2)" fill="#ffea5f"/>
        <path id="Path_768-2" data-name="Path 768" d="M1.915,1.763A8.872,8.872,0,0,1,6.428,0s.017,2.977-1.59,4.475S0,5.994,0,5.994A7.778,7.778,0,0,1,1.915,1.763Z" transform="matrix(0.588, -0.809, 0.809, 0.588, 84.394, 5.2)" fill="#ffea5f"/>
        <path id="Path_768-3" data-name="Path 768" d="M1.915,1.763A8.872,8.872,0,0,1,6.428,0s.017,2.977-1.59,4.475S0,5.994,0,5.994A7.778,7.778,0,0,1,1.915,1.763Z" transform="matrix(0.588, -0.809, 0.809, 0.588, 139.137, 5.2)" fill="#ffea5f"/>
        <path id="Path_768-4" data-name="Path 768" d="M1.915,1.763A8.872,8.872,0,0,1,6.428,0s.017,2.977-1.59,4.475S0,5.994,0,5.994A7.778,7.778,0,0,1,1.915,1.763Z" transform="matrix(0.588, -0.809, 0.809, 0.588, 193.879, 5.2)" fill="#ffea5f"/>
        <path id="Path_768-5" data-name="Path 768" d="M1.915,1.763A8.872,8.872,0,0,1,6.428,0s.017,2.977-1.59,4.475S0,5.994,0,5.994A7.778,7.778,0,0,1,1.915,1.763Z" transform="matrix(0.588, -0.809, 0.809, 0.588, 29.652, 59.942)" fill="#ffea5f"/>
        <path id="Path_768-6" data-name="Path 768" d="M1.915,1.763A8.872,8.872,0,0,1,6.428,0s.017,2.977-1.59,4.475S0,5.994,0,5.994A7.778,7.778,0,0,1,1.915,1.763Z" transform="matrix(0.588, -0.809, 0.809, 0.588, 84.394, 59.942)" fill="#ffea5f"/>
        <path id="Path_768-7" data-name="Path 768" d="M1.915,1.763A8.872,8.872,0,0,1,6.428,0s.017,2.977-1.59,4.475S0,5.994,0,5.994A7.778,7.778,0,0,1,1.915,1.763Z" transform="matrix(0.588, -0.809, 0.809, 0.588, 139.137, 59.942)" fill="#ffea5f"/>
        <path id="Path_768-8" data-name="Path 768" d="M1.915,1.763A8.872,8.872,0,0,1,6.428,0s.017,2.977-1.59,4.475S0,5.994,0,5.994A7.778,7.778,0,0,1,1.915,1.763Z" transform="matrix(0.588, -0.809, 0.809, 0.588, 193.879, 59.942)" fill="#ffea5f"/>
        <path id="Path_768-9" data-name="Path 768" d="M1.915,1.763A8.872,8.872,0,0,1,6.428,0s.017,2.977-1.59,4.475S0,5.994,0,5.994A7.778,7.778,0,0,1,1.915,1.763Z" transform="matrix(0.588, -0.809, 0.809, 0.588, 29.652, 114.684)" fill="#ffea5f"/>
        <path id="Path_768-10" data-name="Path 768" d="M1.915,1.763A8.872,8.872,0,0,1,6.428,0s.017,2.977-1.59,4.475S0,5.994,0,5.994A7.778,7.778,0,0,1,1.915,1.763Z" transform="matrix(0.588, -0.809, 0.809, 0.588, 84.394, 114.684)" fill="#ffea5f"/>
        <path id="Path_768-11" data-name="Path 768" d="M1.915,1.763A8.872,8.872,0,0,1,6.428,0s.017,2.977-1.59,4.475S0,5.994,0,5.994A7.778,7.778,0,0,1,1.915,1.763Z" transform="matrix(0.588, -0.809, 0.809, 0.588, 139.137, 114.684)" fill="#ffea5f"/>
        <path id="Path_768-12" data-name="Path 768" d="M1.915,1.763A8.872,8.872,0,0,1,6.428,0s.017,2.977-1.59,4.475S0,5.994,0,5.994A7.778,7.778,0,0,1,1.915,1.763Z" transform="matrix(0.588, -0.809, 0.809, 0.588, 193.879, 114.684)" fill="#ffea5f"/>
        <path id="Path_768-13" data-name="Path 768" d="M1.915,1.763A8.872,8.872,0,0,1,6.428,0s.017,2.977-1.59,4.475S0,5.994,0,5.994A7.778,7.778,0,0,1,1.915,1.763Z" transform="matrix(0.588, -0.809, 0.809, 0.588, 29.652, 169.427)" fill="#ffea5f"/>
        <path id="Path_768-14" data-name="Path 768" d="M1.915,1.763A8.872,8.872,0,0,1,6.428,0s.017,2.977-1.59,4.475S0,5.994,0,5.994A7.778,7.778,0,0,1,1.915,1.763Z" transform="matrix(0.588, -0.809, 0.809, 0.588, 84.394, 169.427)" fill="#ffea5f"/>
        <path id="Path_768-15" data-name="Path 768" d="M1.915,1.763A8.872,8.872,0,0,1,6.428,0s.017,2.977-1.59,4.475S0,5.994,0,5.994A7.778,7.778,0,0,1,1.915,1.763Z" transform="matrix(0.588, -0.809, 0.809, 0.588, 139.137, 169.427)" fill="#ffea5f"/>
        <path id="Path_768-16" data-name="Path 768" d="M1.915,1.763A8.872,8.872,0,0,1,6.428,0s.017,2.977-1.59,4.475S0,5.994,0,5.994A7.778,7.778,0,0,1,1.915,1.763Z" transform="matrix(0.966, 0.259, -0.259, 0.966, 195.863, 164.86)" fill="#ffea5f"/>
        <path id="Path_768-17" data-name="Path 768" d="M1.915,1.763A8.872,8.872,0,0,1,6.428,0s.017,2.977-1.59,4.475S0,5.994,0,5.994A7.778,7.778,0,0,1,1.915,1.763Z" transform="matrix(0.588, -0.809, 0.809, 0.588, 0, 155.741)" fill="#ffea5f"/>
        <path id="Path_768-18" data-name="Path 768" d="M1.915,1.763A8.872,8.872,0,0,1,6.428,0s.017,2.977-1.59,4.475S0,5.994,0,5.994A7.778,7.778,0,0,1,1.915,1.763Z" transform="matrix(0.588, -0.809, 0.809, 0.588, 54.742, 155.741)" fill="#ffea5f"/>
        <path id="Path_768-19" data-name="Path 768" d="M1.915,1.763A8.872,8.872,0,0,1,6.428,0s.017,2.977-1.59,4.475S0,5.994,0,5.994A7.778,7.778,0,0,1,1.915,1.763Z" transform="matrix(0.588, -0.809, 0.809, 0.588, 109.484, 155.741)" fill="#ffea5f"/>
        <path id="Path_768-20" data-name="Path 768" d="M1.915,1.763A8.872,8.872,0,0,1,6.428,0s.017,2.977-1.59,4.475S0,5.994,0,5.994A7.778,7.778,0,0,1,1.915,1.763Z" transform="matrix(0.588, -0.809, 0.809, 0.588, 164.227, 155.741)" fill="#ffea5f"/>
        <path id="Path_768-21" data-name="Path 768" d="M1.915,1.763A8.872,8.872,0,0,1,6.428,0s.017,2.977-1.59,4.475S0,5.994,0,5.994A7.778,7.778,0,0,1,1.915,1.763Z" transform="matrix(0.588, -0.809, 0.809, 0.588, 0, 210.483)" fill="#ffea5f"/>
        <path id="Path_768-22" data-name="Path 768" d="M1.915,1.763A8.872,8.872,0,0,1,6.428,0s.017,2.977-1.59,4.475S0,5.994,0,5.994A7.778,7.778,0,0,1,1.915,1.763Z" transform="matrix(0.966, 0.259, -0.259, 0.966, 56.729, 205.918)" fill="#ffea5f"/>
        <path id="Path_768-23" data-name="Path 768" d="M1.915,1.763A8.872,8.872,0,0,1,6.428,0s.017,2.977-1.59,4.475S0,5.994,0,5.994A7.778,7.778,0,0,1,1.915,1.763Z" transform="matrix(0.588, -0.809, 0.809, 0.588, 109.484, 210.483)" fill="#ffea5f"/>
        <path id="Path_768-24" data-name="Path 768" d="M1.915,1.763A8.872,8.872,0,0,1,6.428,0s.017,2.977-1.59,4.475S0,5.994,0,5.994A7.778,7.778,0,0,1,1.915,1.763Z" transform="matrix(0.588, -0.809, 0.809, 0.588, 164.227, 210.483)" fill="#ffea5f"/>
        <path id="Path_768-25" data-name="Path 768" d="M1.915,1.763A8.872,8.872,0,0,1,6.428,0s.017,2.977-1.59,4.475S0,5.994,0,5.994A7.778,7.778,0,0,1,1.915,1.763Z" transform="matrix(0.588, -0.809, 0.809, 0.588, 0, 265.226)" fill="#ffea5f"/>
        <path id="Path_768-26" data-name="Path 768" d="M1.915,1.763A8.872,8.872,0,0,1,6.428,0s.017,2.977-1.59,4.475S0,5.994,0,5.994A7.778,7.778,0,0,1,1.915,1.763Z" transform="matrix(0.588, -0.809, 0.809, 0.588, 54.742, 265.226)" fill="#ffea5f"/>
        <path id="Path_768-27" data-name="Path 768" d="M1.915,1.763A8.872,8.872,0,0,1,6.428,0s.017,2.977-1.59,4.475S0,5.994,0,5.994A7.778,7.778,0,0,1,1.915,1.763Z" transform="matrix(0.588, -0.809, 0.809, 0.588, 86.755, 245.644)" fill="#ffea5f"/>
        <path id="Path_768-28" data-name="Path 768" d="M1.915,1.763A8.872,8.872,0,0,1,6.428,0s.017,2.977-1.59,4.475S0,5.994,0,5.994A7.778,7.778,0,0,1,1.915,1.763Z" transform="matrix(0.588, -0.809, 0.809, 0.588, 164.227, 265.226)" fill="#ffea5f"/>
        <path id="Path_768-29" data-name="Path 768" d="M1.915,1.763A8.872,8.872,0,0,1,6.428,0s.017,2.977-1.59,4.475S0,5.994,0,5.994A7.778,7.778,0,0,1,1.915,1.763Z" transform="matrix(0.588, -0.809, 0.809, 0.588, 0, 319.968)" fill="#ffea5f"/>
        <path id="Path_768-30" data-name="Path 768" d="M1.915,1.763A8.872,8.872,0,0,1,6.428,0s.017,2.977-1.59,4.475S0,5.994,0,5.994A7.778,7.778,0,0,1,1.915,1.763Z" transform="matrix(0.588, -0.809, 0.809, 0.588, 54.742, 319.968)" fill="#ffea5f"/>
        <path id="Path_768-31" data-name="Path 768" d="M1.915,1.763A8.872,8.872,0,0,1,6.428,0s.017,2.977-1.59,4.475S0,5.994,0,5.994A7.778,7.778,0,0,1,1.915,1.763Z" transform="matrix(0.588, -0.809, 0.809, 0.588, 124.228, 261.94)" fill="#ffea5f"/>
        <path id="Path_768-32" data-name="Path 768" d="M1.915,1.763A8.872,8.872,0,0,1,6.428,0s.017,2.977-1.59,4.475S0,5.994,0,5.994A7.778,7.778,0,0,1,1.915,1.763Z" transform="matrix(0.588, -0.809, 0.809, 0.588, 109.101, 317.797)" fill="#ffea5f"/>
        <path id="Path_768-33" data-name="Path 768" d="M1.915,1.763A8.872,8.872,0,0,1,6.428,0s.017,2.977-1.59,4.475S0,5.994,0,5.994A7.778,7.778,0,0,1,1.915,1.763Z" transform="matrix(0.588, -0.809, 0.809, 0.588, 221.25, 208.202)" fill="#ffea5f"/>
        <path id="Path_768-34" data-name="Path 768" d="M1.915,1.763A8.872,8.872,0,0,1,6.428,0s.017,2.977-1.59,4.475S0,5.994,0,5.994A7.778,7.778,0,0,1,1.915,1.763Z" transform="matrix(0.588, -0.809, 0.809, 0.588, 275.992, 208.202)" fill="#ffea5f"/>
        <path id="Path_768-35" data-name="Path 768" d="M1.915,1.763A8.872,8.872,0,0,1,6.428,0s.017,2.977-1.59,4.475S0,5.994,0,5.994A7.778,7.778,0,0,1,1.915,1.763Z" transform="matrix(0.588, -0.809, 0.809, 0.588, 330.734, 208.202)" fill="#ffea5f"/>
        <path id="Path_768-36" data-name="Path 768" d="M1.915,1.763A8.872,8.872,0,0,1,6.428,0s.017,2.977-1.59,4.475S0,5.994,0,5.994A7.778,7.778,0,0,1,1.915,1.763Z" transform="matrix(0.588, -0.809, 0.809, 0.588, 385.477, 208.202)" fill="#ffea5f"/>
        <path id="Path_768-37" data-name="Path 768" d="M1.915,1.763A8.872,8.872,0,0,1,6.428,0s.017,2.977-1.59,4.475S0,5.994,0,5.994A7.778,7.778,0,0,1,1.915,1.763Z" transform="matrix(0.588, -0.809, 0.809, 0.588, 221.25, 262.945)" fill="#ffea5f"/>
        <path id="Path_768-38" data-name="Path 768" d="M1.915,1.763A8.872,8.872,0,0,1,6.428,0s.017,2.977-1.59,4.475S0,5.994,0,5.994A7.778,7.778,0,0,1,1.915,1.763Z" transform="translate(234.448 167.292) rotate(45)" fill="#ffea5f"/>
        <path id="Path_768-39" data-name="Path 768" d="M1.915,1.763A8.872,8.872,0,0,1,6.428,0s.017,2.977-1.59,4.475S0,5.994,0,5.994A7.778,7.778,0,0,1,1.915,1.763Z" transform="matrix(0.588, -0.809, 0.809, 0.588, 330.734, 262.945)" fill="#ffea5f"/>
        <path id="Path_768-40" data-name="Path 768" d="M1.915,1.763A8.872,8.872,0,0,1,6.428,0s.017,2.977-1.59,4.475S0,5.994,0,5.994A7.778,7.778,0,0,1,1.915,1.763Z" transform="matrix(0.588, -0.809, 0.809, 0.588, 385.477, 262.945)" fill="#ffea5f"/>
        <path id="Path_768-41" data-name="Path 768" d="M1.915,1.763A8.872,8.872,0,0,1,6.428,0s.017,2.977-1.59,4.475S0,5.994,0,5.994A7.778,7.778,0,0,1,1.915,1.763Z" transform="matrix(0.588, -0.809, 0.809, 0.588, 196.347, 310.194)" fill="#ffea5f"/>
        <path id="Path_768-42" data-name="Path 768" d="M1.915,1.763A8.872,8.872,0,0,1,6.428,0s.017,2.977-1.59,4.475S0,5.994,0,5.994A7.778,7.778,0,0,1,1.915,1.763Z" transform="matrix(0.588, -0.809, 0.809, 0.588, 244.07, 243.948)" fill="#ffea5f"/>
        <path id="Path_768-43" data-name="Path 768" d="M1.915,1.763A8.872,8.872,0,0,1,6.428,0s.017,2.977-1.59,4.475S0,5.994,0,5.994A7.778,7.778,0,0,1,1.915,1.763Z" transform="matrix(0.588, -0.809, 0.809, 0.588, 330.734, 317.687)" fill="#ffea5f"/>
        <path id="Path_768-44" data-name="Path 768" d="M1.915,1.763A8.872,8.872,0,0,1,6.428,0s.017,2.977-1.59,4.475S0,5.994,0,5.994A7.778,7.778,0,0,1,1.915,1.763Z" transform="matrix(0.588, -0.809, 0.809, 0.588, 385.477, 317.687)" fill="#ffea5f"/>
        <path id="Path_768-45" data-name="Path 768" d="M1.915,1.763A8.872,8.872,0,0,1,6.428,0s.017,2.977-1.59,4.475S0,5.994,0,5.994A7.778,7.778,0,0,1,1.915,1.763Z" transform="matrix(0.588, -0.809, 0.809, 0.588, 221.25, 372.429)" fill="#ffea5f"/>
        <path id="Path_768-46" data-name="Path 768" d="M1.915,1.763A8.872,8.872,0,0,1,6.428,0s.017,2.977-1.59,4.475S0,5.994,0,5.994A7.778,7.778,0,0,1,1.915,1.763Z" transform="matrix(0.588, -0.809, 0.809, 0.588, 275.992, 372.429)" fill="#ffea5f"/>
        <path id="Path_768-47" data-name="Path 768" d="M1.915,1.763A8.872,8.872,0,0,1,6.428,0s.017,2.977-1.59,4.475S0,5.994,0,5.994A7.778,7.778,0,0,1,1.915,1.763Z" transform="matrix(0.588, -0.809, 0.809, 0.588, 330.734, 372.429)" fill="#ffea5f"/>
        <path id="Path_768-48" data-name="Path 768" d="M1.915,1.763A8.872,8.872,0,0,1,6.428,0s.017,2.977-1.59,4.475S0,5.994,0,5.994A7.778,7.778,0,0,1,1.915,1.763Z" transform="matrix(0.588, -0.809, 0.809, 0.588, 385.477, 372.429)" fill="#ffea5f"/>
      </g>
    </g>
    <path id="Path_720" data-name="Path 720" d="M-11815.916-2572.99s14.639,52.737,38.455,90.261,56.852,59.831,56.852,59.831a212.814,212.814,0,0,1-3.316-25.325,122.229,122.229,0,0,1,.8-21.612s38.283,15.336,63.771,46.937,38.207,79.458,38.207,79.458-85.936,52.953-167.693-37.208S-11815.916-2572.99-11815.916-2572.99Z" transform="translate(11868.513 2816.034)" fill="url(#linear-gradient-3)"/>
    <path id="Path_721" data-name="Path 721" d="M222.339,0s-19.5,55.51-46.692,88.976-62.066,44.885-62.066,44.885a144.272,144.272,0,0,0,3.112-20.056,81.856,81.856,0,0,0-.751-17.115s-36.064,12.146-60.085,37.171C31.855,158.883,0,202.744,0,202.744s91.36,50.573,166.224-39.705S222.339,0,222.339,0Z" transform="translate(199.251 279.44) rotate(-11)" fill="url(#linear-gradient-3)"/>
    <path id="Path_718" data-name="Path 718" d="M-11680.564-2633.3s16.783,20.337,26.68-5.975-7.9-25.917-7.9-25.917a17.269,17.269,0,0,0-15.42,9.538C-11682.588-2645.531-11680.564-2633.3-11680.564-2633.3Z" transform="translate(11794.567 2737.038)" fill="#bc0531"/>
    <path id="Path_724" data-name="Path 724" d="M.109.04S23.384,7.782,40.187,9.9,85.1,0,85.1,0,80.829,43.921,38.41,41.831.109.04.109.04Z" transform="translate(208.156 349.792) rotate(-9)" fill="#7d001e"/>
    <ellipse id="Ellipse_369" data-name="Ellipse 369" cx="53.5" cy="67.5" rx="53.5" ry="67.5" transform="translate(111.887 166.017)" fill="#fff" opacity="0.64"/>
    <ellipse id="Ellipse_395" data-name="Ellipse 395" cx="45.5" cy="51.5" rx="45.5" ry="51.5" transform="translate(143.887 223.017)" fill="#fff"/>
    <ellipse id="Ellipse_396" data-name="Ellipse 396" cx="44.5" cy="51.5" rx="44.5" ry="51.5" transform="translate(239.887 223.017)" fill="#fff"/>
    <ellipse id="Ellipse_397" data-name="Ellipse 397" cx="16" cy="18" rx="16" ry="18" transform="translate(182.887 258.017)" fill="#585858"/>
    <ellipse id="Ellipse_400" data-name="Ellipse 400" cx="16" cy="18" rx="16" ry="18" transform="translate(259.887 258.017)" fill="#585858"/>
    <ellipse id="Ellipse_398" data-name="Ellipse 398" cx="9" cy="8" rx="9" ry="8" transform="translate(182.887 258.017)" fill="#fff"/>
    <ellipse id="Ellipse_399" data-name="Ellipse 399" cx="9" cy="8" rx="9" ry="8" transform="translate(259.887 258.017)" fill="#fff"/>
    <g transform="matrix(1, 0, 0, 1, 0, 0)" filter="url(#Path_756)">
      <path id="Path_756-2" data-name="Path 756" d="M-11698-1291.555s13.164-12.535,31.635-13.992,42.27,8.163,42.27,8.163l1.75-21.864s-19.557-6.923-38.473,0S-11698-1291.555-11698-1291.555Z" transform="translate(11840.93 1518.72)" fill="#6a172a"/>
    </g>
    <g transform="matrix(1, 0, 0, 1, 0, 0)" filter="url(#Path_757)">
      <path id="Path_757-2" data-name="Path 757" d="M89.345,30.77S73.8,18.235,51.984,16.778,2.068,24.94,2.068,24.94L0,3.077s23.1-6.923,45.434,0S89.345,30.77,89.345,30.77Z" transform="matrix(1, -0.02, 0.02, 1, 250.47, 165.03)" fill="#6a172a"/>
    </g>
    <path id="Path_760" data-name="Path 760" d="M-11627.689-1191.139c-2.631-6.571-66.682-103.279-66.682-103.279" transform="translate(11860.617 1670.198)" fill="none" stroke="#418834" stroke-linecap="round" stroke-width="1" opacity="0.36"/>
    <path id="Path_763" data-name="Path 763" d="M-11694.371-1177.769c1.2-3,22.814-8.606,45.42-36.5,24.223-29.888,50.023-82.615,50.023-82.615" transform="translate(11929.72 1656.829)" fill="none" stroke="#418834" stroke-linecap="round" stroke-width="1" opacity="0.36"/>
    <path id="Path_761" data-name="Path 761" d="M-11705.784-1313s-11.076,34.828-7.084,74.617c1.992,19.815,9.43,89.11,58.283,122.325,45.9,31.208,133.213,26.258,133.213,26.258" transform="translate(11755.513 1569.332)" fill="none" stroke="#418834" stroke-linecap="round" stroke-width="1" opacity="0.36"/>
    <path id="Path_762" data-name="Path 762" d="M-11527.647-1313.624s-.906,37.521-4.549,77.31c-1.82,19.815-15.473,90.428-60.033,123.644-41.863,31.208-121.506,26.258-121.506,26.258" transform="translate(11947.873 1565.945)" fill="none" stroke="#418834" stroke-linecap="round" stroke-width="1" opacity="0.36"/>
    <path id="Path_766" data-name="Path 766" d="M3347.723,17724.988s-46.552,44.973-21.239,96.309,137.368,71.227,137.368,71.227,158.965,25.086,242.429-32.977c48.657-33.859,51.356-77.129,41.016-109.8-7.229-22.836-27.194-34.887-27.194-34.887l-10.926,74.422-95.875,44.551-214.819-12.535-49.982-71.551Z" transform="translate(-3305.395 -17356.439)" fill="#ccac43"/>
    <path id="Path_767" data-name="Path 767" d="M3353.979,17752.152s23.945,67.633,179.586,61.914c162.962-6.008,173.259-80.035,173.259-80.035l2.689-3,7.135-18.059s21.521,19.512,21.277,35.523c-.587,38.609-55.416,94.477-204.36,99.891-137.28,5-193.475-54.836-197.726-94.387-1.444-13.434,8.437-27.113,8.437-27.113Z" transform="translate(-3301.197 -17355.438)" fill="#fce886"/>
    <path id="Path_770" data-name="Path 770" d="M-11295.087-1364.107s22.824,5.116,40.918,4.329,37.059-9.09,37.059-9.09a79.3,79.3,0,0,0,2.785-10.512,63.31,63.31,0,0,0,.889-10.115s-26.943,16.076-41.781,16.957-42.48-3.5-42.48-3.5a29.846,29.846,0,0,0,.645,5.739A43.872,43.872,0,0,0-11295.087-1364.107Z" transform="translate(11506.063 1725.914)" fill="#fff"/>
  </g>
</svg>
