<svg xmlns="http://www.w3.org/2000/svg" width="36" height="44.828" viewBox="0 0 36 44.828">
  <g id="Group_136" data-name="Group 136" transform="translate(-1478 -501)">
    <path id="Path_8082" data-name="Path 8082" d="M134-2973H120a3,3,0,0,1-3-3,3,3,0,0,1,3-3h14a3,3,0,0,1,3,3,3,3,0,0,1-3,3" transform="translate(1369 3480)" fill="rgba(255,255,255,0.5)" fill-rule="evenodd"/>
    <path id="Path_8083" data-name="Path 8083" d="M137-2951H127a2.018,2.018,0,0,1-.764-.154,2,2,0,0,1-.652-.434l-8-8a2,2,0,0,1,0-2.828,2,2,0,0,1,2.828,0l7.414,7.414H137a2,2,0,0,1,2,2A2,2,0,0,1,137-2951Zm3.122,10.294A17.91,17.91,0,0,0,145-2953a18,18,0,0,0-18-18,18,18,0,0,0-18,18,17.919,17.919,0,0,0,4.878,12.294l-3.12,3.12a2,2,0,0,0,0,2.828,1.994,1.994,0,0,0,1.414.586,1.994,1.994,0,0,0,1.414-.586l3.33-3.33A17.93,17.93,0,0,0,127-2935a17.925,17.925,0,0,0,10.084-3.088l3.33,3.33a1.994,1.994,0,0,0,1.414.586,1.994,1.994,0,0,0,1.414-.586,2,2,0,0,0,0-2.828Z" transform="translate(1369 3480)" fill="#fff" fill-rule="evenodd"/>
  </g>
</svg>
