<svg id="ICON_MAN_FILL" xmlns="http://www.w3.org/2000/svg" width="42.146" height="42.146" viewBox="0 0 42.146 42.146">
  <rect id="Rectangle_1005" data-name="Rectangle 1005" width="42.146" height="42.146" fill="none"/>
  <path id="Path_9198" data-name="Path 9198" d="M26.444,23.234c1.282-1.282,2.95-2,3.618-3.863,1.212-.351,2.125-2.406,2.125-3.723a2.88,2.88,0,0,0-1.212-2.336,11.924,11.924,0,0,0-1.422-8.78,6.779,6.779,0,0,0-4.039-2.775A1.229,1.229,0,0,0,24.6.739c-4.443-1.159-8.306-.4-10.888,2.09a10.431,10.431,0,0,0-2.757,10.537c0-.3,0,.088,0-.193v.158h0a2.9,2.9,0,0,0-1.141,2.318c0,1.264.843,3.512,1.967,3.881.6,1.861,2.336,2.406,3.512,3.67v3.934c-2.74.808-10.888,3.056-13.8,7.639A7.534,7.534,0,0,0,.436,40.655a1.229,1.229,0,0,0,1.194.966H40.211a1.229,1.229,0,0,0,1.229-1.089c1.036-9.114-11.344-12.187-15.05-13.188" transform="translate(0.179 0.157)" fill="#fff"/>
</svg>
