<svg xmlns="http://www.w3.org/2000/svg" xmlns:xlink="http://www.w3.org/1999/xlink" width="431.289" height="523.078" viewBox="0 0 431.289 523.078">
  <defs>
    <linearGradient id="linear-gradient" x1="0.5" y1="0.637" x2="0.556" y2="1.101" gradientUnits="objectBoundingBox">
      <stop offset="0" stop-color="#7ee26c"/>
      <stop offset="1" stop-color="#24c606"/>
    </linearGradient>
    <clipPath id="clip-path">
      <path id="Path_676" data-name="Path 676" d="M4206.015,17784.793a385.29,385.29,0,0,1,0-85.484c6.932-59.078,35.5-128.344,152.063-138.141,205.58-17.293,165.7,199.707,165.7,199.707s-12.029,64.051-147.294,65.828S4206.015,17784.793,4206.015,17784.793Z" transform="translate(-4203.644 -17560.188)" fill="#7ee26c"/>
    </clipPath>
    <linearGradient id="linear-gradient-2" x1="0.5" x2="0.5" y2="1" gradientUnits="objectBoundingBox">
      <stop offset="0" stop-color="#7ee26c"/>
      <stop offset="1" stop-color="#44d02b"/>
    </linearGradient>
    <filter id="Path_681" x="115.218" y="113.65" width="79.144" height="60.408" filterUnits="userSpaceOnUse">
      <feOffset dy="3" input="SourceAlpha"/>
      <feGaussianBlur stdDeviation="3" result="blur"/>
      <feFlood flood-opacity="0.478"/>
      <feComposite operator="in" in2="blur"/>
      <feComposite in="SourceGraphic"/>
    </filter>
    <filter id="Path_682" x="236.651" y="108.167" width="63.301" height="54.124" filterUnits="userSpaceOnUse">
      <feOffset dy="3" input="SourceAlpha"/>
      <feGaussianBlur stdDeviation="3" result="blur-2"/>
      <feFlood flood-opacity="0.478"/>
      <feComposite operator="in" in2="blur-2"/>
      <feComposite in="SourceGraphic"/>
    </filter>
  </defs>
  <g id="Group_874" data-name="Group 874" transform="translate(-0.001)">
    <g id="Group_870" data-name="Group 870" transform="translate(0.001)">
      <g id="Group_855" data-name="Group 855">
        <path id="Path_677" data-name="Path 677" d="M3515.586,17647.072v-50.309s40.416-2.789,70.045-14.477a143.307,143.307,0,0,0,48.464-32.25s-29.407-36.2-73.734-17.023c-44.326,19.148-51.581,63.75-51.581,63.75Z" transform="translate(-3282.909 -17527.412)" fill="#41c62a"/>
        <path id="Path_669" data-name="Path 669" d="M3370.383,17855.537s19.321,58.1,28.7,69.1c4.822,5.652,18.229,30.141,70.825,36.293,49.582,5.82,118.409,1.9,134.439-1.715,36.494-8.23,53.345-1.836,71.4-26.773s20.549-81.281,20.549-81.281Z" transform="translate(-3311.976 -17440.822)" fill="#9a7f26"/>
        <path id="Path_679" data-name="Path 679" d="M179.822,0c96.409,0,174.565,42.63,174.565,95.217s-78.155,95.217-174.565,95.217S-.983,143.266-.983,90.679,83.413,0,179.822,0Z" transform="translate(38.627 196.137)" fill="#ccac43"/>
        <path id="Path_672" data-name="Path 672" d="M4206.015,17784.793a385.29,385.29,0,0,1,0-85.484c6.932-59.078,35.5-128.344,152.063-138.141,205.58-17.293,165.7,199.707,165.7,199.707s-12.029,64.051-147.294,65.828S4206.015,17784.793,4206.015,17784.793Z" transform="translate(-4145.555 -17459.279)" fill="url(#linear-gradient)"/>
        <path id="Path_670" data-name="Path 670" d="M3379.961,17711.17s-81.768,30.207-54.192,105.563,129.427,90.816,129.427,90.816,169.054,22.457,252.518-35.613c48.657-33.855,48.461-84.793,38.121-117.465-7.229-22.836-20.645-34-20.645-34l-17.476,73.531-95.875,44.551-214.819-12.535-49.982-71.551Z" transform="translate(-3320.088 -17464.938)" fill="#ccac43"/>
        <path id="Path_671" data-name="Path 671" d="M3376.9,17720.9s-13.045,5.984-16.607,22.754c-6.666,31.359,17.686,82.379,173.327,76.66,236.178-8.7,163.9-100.687,163.9-100.687v-11.52s40.928,16.02,40.46,46.641c-.587,38.609-55.416,94.477-204.36,99.891-137.28,5-193.475-54.836-197.726-94.387-3.892-36.2,41.006-50.371,41.006-50.371Z" transform="translate(-3317.405 -17465.463)" fill="#fad65f"/>
        <path id="Path_673" data-name="Path 673" d="M3443.167,17700.844s.222-15.535,18.752-16.215c18.53-.7,22.026,16.215,22.026,16.215" transform="translate(-3298.896 -17469.51)" fill="none" stroke="#1bb400" stroke-linecap="round" stroke-width="1"/>
        <path id="Path_674" data-name="Path 674" d="M3483.945,17700.844s-.222-15.535-18.752-16.215c-18.531-.7-22.026,16.215-22.026,16.215" transform="translate(-3181.925 -17469.51)" fill="none" stroke="#1bb400" stroke-linecap="round" stroke-width="1"/>
        <g id="Mask_Group_50" data-name="Mask Group 50" transform="translate(58.09 100.908)" clip-path="url(#clip-path)">
          <path id="Union_8" data-name="Union 8" d="M103.714,223.515a16.9,16.9,0,1,1,16.9,17.013A16.955,16.955,0,0,1,103.714,223.515Zm142.169-97.971a19.811,19.811,0,1,1,19.811,19.946A19.879,19.879,0,0,1,245.883,125.544ZM0,109.117a17.48,17.48,0,1,1,17.48,17.6A17.54,17.54,0,0,1,0,109.117Zm40.786-7.039A11.653,11.653,0,1,1,52.44,113.811,11.693,11.693,0,0,1,40.786,102.078ZM17.48,35.2A34.96,34.96,0,1,1,52.44,70.4,35.08,35.08,0,0,1,17.48,35.2Zm149.161,6.453a22.724,22.724,0,1,1,22.724,22.88A22.8,22.8,0,0,1,166.641,41.652Z" transform="translate(17.587 5.648)" fill="#1bb400" opacity="0.607"/>
        </g>
        <path id="Path_678" data-name="Path 678" d="M3520.278,17558.58s24.741-29.578,50.134-39.449c25.391-9.855,51.432,0,51.432,0" transform="translate(-3285.617 -17498.748)" fill="none" stroke="#148600" stroke-width="1"/>
      </g>
      <ellipse id="Ellipse_350" data-name="Ellipse 350" cx="37.5" cy="47" rx="37.5" ry="47" transform="translate(241.966 151.467)" fill="url(#linear-gradient-2)"/>
      <ellipse id="Ellipse_351" data-name="Ellipse 351" cx="38" cy="43.5" rx="38" ry="43.5" transform="translate(115.966 158.467)" fill="url(#linear-gradient-2)"/>
      <ellipse id="Ellipse_346" data-name="Ellipse 346" cx="32" cy="39.5" rx="32" ry="39.5" transform="translate(120.966 163.467)" fill="#240302"/>
      <ellipse id="Ellipse_348" data-name="Ellipse 348" cx="30.5" cy="39.5" rx="30.5" ry="39.5" transform="translate(248.966 163.467)" fill="#240302"/>
      <ellipse id="Ellipse_347" data-name="Ellipse 347" cx="9" cy="13.5" rx="9" ry="13.5" transform="translate(143.966 181.467)" fill="#fff"/>
      <ellipse id="Ellipse_349" data-name="Ellipse 349" cx="10.5" cy="13.5" rx="10.5" ry="13.5" transform="translate(270.966 181.467)" fill="#fff"/>
      <path id="Path_680" data-name="Path 680" d="M1713.724,20042.742s10.94,6.637,20.723,6.637,18.409-6.637,18.409-6.637-4.622,15.191-19.573,14.238S1713.724,20042.742,1713.724,20042.742Z" transform="translate(-1580.51 -19820.334)" fill="#5f1900"/>
      <path id="Path_683" data-name="Path 683" d="M1713.724,20042.742s10.94,6.637,20.723,6.637,18.409-6.637,18.409-6.637-4.622,15.191-19.573,14.238S1713.724,20042.742,1713.724,20042.742Z" transform="translate(-1453.555 -19820.334)" fill="#5f1900"/>
      <g transform="matrix(1, 0, 0, 1, 0, 0)" filter="url(#Path_681)">
        <path id="Path_681-2" data-name="Path 681" d="M1481.077,19997.324c-2.97-3.113,2.4-21.648,15.877-32.219s21.894-11.215,31.435-8.363,20.127,9.211,6.645,19.781c-3.8,2.969-12.3-4.336-26.28,1.086S1484.048,20000.449,1481.077,19997.324Z" transform="translate(-1356.06 -19835.64)" fill="#0f6500"/>
      </g>
      <g transform="matrix(1, 0, 0, 1, 0, 0)" filter="url(#Path_682)">
        <path id="Path_682-2" data-name="Path 682" d="M44.738.418c2.31,3.11-2.592,20.558-12.8,28.564S14,37.61,7.438,34.057-4.527,22.779,5.684,14.77c2.881-2.263,6.423,5.879,17.013,1.77S42.428-2.692,44.738.418Z" transform="translate(245.65 114.17)" fill="#0f6500"/>
      </g>
      <path id="Path_684" data-name="Path 684" d="M75.589,0c41.261,0,54.926,59.475,54.926,59.475L0,46.752S34.329,0,75.589,0Z" transform="translate(307.491 299.826) rotate(171)" fill="#5e8e56"/>
      <path id="Path_685" data-name="Path 685" d="M2483.754,18977.5l130.916-9.75-9.18,16.566s-43.267,5.145-73.7,3.438S2483.754,18977.5,2483.754,18977.5Z" transform="translate(-2314.475 -18716.076)" fill="#ebebeb"/>
    </g>
  </g>
</svg>
